<svg aria-hidden="true" style="position: absolute; width: 0; height: 0; overflow: hidden;" version="1.1" xmlns="http://www.w3.org/2000/svg" xmlns:xlink="http://www.w3.org/1999/xlink">
<defs>
<symbol id="icon-mail4" viewBox="0 0 32 32">
<title>mail4</title>
<path d="M16 0c-8.837 0-16 7.163-16 16s7.163 16 16 16 16-7.163 16-16-7.163-16-16-16zM8 8h16c0.286 0 0.563 0.061 0.817 0.177l-8.817 10.286-8.817-10.287c0.254-0.116 0.531-0.177 0.817-0.177zM6 22v-12c0-0.042 0.002-0.084 0.004-0.125l5.864 6.842-5.8 5.8c-0.045-0.167-0.069-0.34-0.069-0.517zM24 24h-16c-0.177 0-0.35-0.024-0.517-0.069l5.691-5.691 2.826 3.297 2.826-3.297 5.691 5.691c-0.167 0.045-0.34 0.069-0.517 0.069zM26 22c0 0.177-0.024 0.35-0.069 0.517l-5.8-5.8 5.865-6.842c0.003 0.041 0.004 0.083 0.004 0.125v12z"></path>
</symbol>
<symbol id="icon-github-with-circle" viewBox="0 0 32 32">
<title>github-with-circle</title>
<path d="M16.024 15.918c0 0-0.016 0-0.024 0h-0.024c-1.906 0-3.584-0.485-4.578 0.429-0.594 0.547-0.843 1.206-0.843 1.915 0 2.963 2.373 3.328 5.422 3.328h0.046c3.048 0 5.422-0.366 5.422-3.328 0-0.709-0.25-1.37-0.843-1.915-0.995-0.914-2.674-0.429-4.579-0.429zM13.429 19.968c-0.581 0-1.050-0.653-1.050-1.456s0.469-1.453 1.050-1.453c0.581 0 1.051 0.65 1.051 1.453 0.002 0.803-0.469 1.456-1.051 1.456zM18.57 19.968c-0.581 0-1.051-0.653-1.051-1.456s0.47-1.453 1.051-1.453c0.579 0 1.050 0.65 1.050 1.453 0.002 0.803-0.469 1.456-1.050 1.456zM16 0.64c-8.483 0-15.36 6.877-15.36 15.36s6.877 15.36 15.36 15.36 15.36-6.877 15.36-15.36-6.877-15.36-15.36-15.36zM17.402 22.302c-0.275 0-0.822 0-1.402 0.003-0.579-0.003-1.126-0.003-1.402-0.003-1.216 0-6.035-0.094-6.035-5.902 0-1.334 0.458-2.312 1.208-3.128-0.118-0.294-0.125-1.971 0.512-3.578 0 0 1.466 0.16 3.682 1.682 0.462-0.13 1.25-0.195 2.035-0.195s1.571 0.066 2.037 0.194c2.216-1.522 3.682-1.682 3.682-1.682 0.637 1.606 0.632 3.285 0.512 3.578 0.75 0.816 1.208 1.794 1.208 3.128-0.002 5.811-4.821 5.904-6.037 5.904z"></path>
</symbol>
<symbol id="icon-linkedin-with-circle" viewBox="0 0 32 32">
<title>linkedin-with-circle</title>
<path d="M16 0.801c-8.394 0-15.199 6.805-15.199 15.199s6.805 15.199 15.199 15.199 15.199-6.805 15.199-15.199-6.805-15.199-15.199-15.199zM12.279 22.3h-3.078v-9.905h3.078v9.905zM10.721 11.179c-0.972 0-1.601-0.689-1.601-1.541 0-0.869 0.648-1.537 1.64-1.537s1.601 0.668 1.62 1.537c0 0.852-0.627 1.541-1.659 1.541zM23.521 22.3h-3.078v-5.489c0-1.278-0.446-2.145-1.56-2.145-0.85 0-1.355 0.587-1.578 1.153-0.082 0.201-0.103 0.486-0.103 0.769v5.711h-3.079v-6.745c0-1.237-0.040-2.27-0.081-3.16h2.674l0.141 1.376h0.062c0.405-0.646 1.398-1.599 3.059-1.599 2.025 0 3.543 1.357 3.543 4.273v5.856z"></path>
</symbol>
<symbol id="icon-twitter-with-circle" viewBox="0 0 32 32">
<title>twitter-with-circle</title>
<path d="M16 0.64c-8.483 0-15.36 6.877-15.36 15.36s6.877 15.36 15.36 15.36 15.36-6.877 15.36-15.36-6.877-15.36-15.36-15.36zM22.248 13.222c0.006 0.131 0.008 0.262 0.008 0.39 0 4-3.042 8.61-8.606 8.61-1.709 0-3.299-0.499-4.637-1.36 0.235 0.029 0.477 0.040 0.722 0.040 1.418 0 2.722-0.482 3.757-1.294-1.323-0.026-2.44-0.899-2.826-2.099 0.184 0.034 0.373 0.053 0.568 0.053 0.275 0 0.544-0.037 0.797-0.106-1.384-0.278-2.427-1.501-2.427-2.966v-0.037c0.408 0.226 0.875 0.363 1.371 0.379-0.813-0.544-1.346-1.469-1.346-2.52 0-0.554 0.149-1.075 0.41-1.522 1.493 1.83 3.72 3.034 6.235 3.163-0.053-0.222-0.078-0.453-0.078-0.691 0-1.669 1.354-3.026 3.026-3.026 0.869 0 1.656 0.368 2.208 0.957 0.69-0.138 1.336-0.387 1.92-0.734-0.226 0.706-0.704 1.299-1.33 1.675 0.613-0.075 1.195-0.237 1.738-0.478-0.405 0.606-0.918 1.141-1.509 1.566z"></path>
</symbol>
</defs>
</svg>
